<?xml version="1.0" encoding="UTF-8" standalone="no"?>
<!DOCTYPE svg PUBLIC "-//W3C//DTD SVG 1.1//EN" "http://www.w3.org/Graphics/SVG/1.1/DTD/svg11.dtd">
<svg width="100%" height="100%" viewBox="0 0 1024 1024" version="1.1" xmlns="http://www.w3.org/2000/svg" xmlns:xlink="http://www.w3.org/1999/xlink" xml:space="preserve" xmlns:serif="http://www.serif.com/" style="fill-rule:evenodd;clip-rule:evenodd;">
    <g transform="matrix(0.591511,0,0,0.591511,360.532,503.666)">
        <g id="links">
            <path d="M-30.978,-25.44L-176.579,-13.745" style="fill:none;fill-rule:nonzero;stroke:black;stroke-width:1px;"/>
            <path d="M-190.202,-15.383L-279.77,-45.019" style="fill:none;fill-rule:nonzero;stroke:black;stroke-width:1px;"/>
            <path d="M-293.415,-47.126L-366.702,-46.163" style="fill:none;fill-rule:nonzero;stroke:black;stroke-width:1px;"/>
            <path d="M-291.808,-51.682L-354.956,-103.949" style="fill:none;fill-rule:nonzero;stroke:black;stroke-width:1px;"/>
            <path d="M-366.025,-112.507L-425.253,-155.229" style="fill:none;fill-rule:nonzero;stroke:black;stroke-width:1px;"/>
            <path d="M-187.744,-18.793L-235.629,-82.933" style="fill:none;fill-rule:nonzero;stroke:black;stroke-width:1px;"/>
            <path d="M-243.685,-94.375L-284.515,-155.939" style="fill:none;fill-rule:nonzero;stroke:black;stroke-width:1px;"/>
            <path d="M-183.548,-20.184L-183.447,-98.658" style="fill:none;fill-rule:nonzero;stroke:black;stroke-width:1px;"/>
            <path d="M-185.327,-112.398L-205.03,-182.709" style="fill:none;fill-rule:nonzero;stroke:black;stroke-width:1px;"/>
            <path d="M-189.011,-8.796L-283.311,67.066" style="fill:none;fill-rule:nonzero;stroke:black;stroke-width:1px;"/>
            <path d="M-284.268,76.817L-238.054,131.928" style="fill:none;fill-rule:nonzero;stroke:black;stroke-width:1px;"/>
            <path d="M-294.782,75.032L-391.755,132.708" style="fill:none;fill-rule:nonzero;stroke:black;stroke-width:1px;"/>
            <path d="M-402.665,131.28L-455.467,77.267" style="fill:none;fill-rule:nonzero;stroke:black;stroke-width:1px;"/>
            <path d="M-399.595,143.044L-419.879,218.229" style="fill:none;fill-rule:nonzero;stroke:black;stroke-width:1px;"/>
            <path d="M-426.96,220.366L-479.44,174.222" style="fill:none;fill-rule:nonzero;stroke:black;stroke-width:1px;"/>
            <path d="M-404.308,138.791L-478.161,167.095" style="fill:none;fill-rule:nonzero;stroke:black;stroke-width:1px;"/>
            <path d="M-402.492,141.454L-455.191,199.147" style="fill:none;fill-rule:nonzero;stroke:black;stroke-width:1px;"/>
            <path d="M-404.611,134.798L-480.146,118.368" style="fill:none;fill-rule:nonzero;stroke:black;stroke-width:1px;"/>
            <path d="M-395.739,129.588L-375.499,62.89" style="fill:none;fill-rule:nonzero;stroke:black;stroke-width:1px;"/>
            <path d="M-394.902,142.671L-364.34,210.687" style="fill:none;fill-rule:nonzero;stroke:black;stroke-width:1px;"/>
            <path d="M-295.654,70.212L-366.578,57.433" style="fill:none;fill-rule:nonzero;stroke:black;stroke-width:1px;"/>
            <path d="M-288.987,78.45L-291.278,150.959" style="fill:none;fill-rule:nonzero;stroke:black;stroke-width:1px;"/>
            <path d="M-29.433,-30.413L-83.692,-74.487" style="fill:none;fill-rule:nonzero;stroke:black;stroke-width:1px;"/>
            <path d="M-17.008,-26.345L132.684,-33.727" style="fill:none;fill-rule:nonzero;stroke:black;stroke-width:1px;"/>
            <path d="M136.096,-40.087L68.683,-153.37" style="fill:none;fill-rule:nonzero;stroke:black;stroke-width:1px;"/>
            <path d="M58.332,-161.16L-12.443,-179.711" style="fill:none;fill-rule:nonzero;stroke:black;stroke-width:1px;"/>
            <path d="M61.425,-165.341L6.785,-253.83" style="fill:none;fill-rule:nonzero;stroke:black;stroke-width:1px;"/>
            <path d="M4.459,-266.654L18.666,-338.843" style="fill:none;fill-rule:nonzero;stroke:black;stroke-width:1px;"/>
            <path d="M-0.938,-265.499L-51.02,-336.227" style="fill:none;fill-rule:nonzero;stroke:black;stroke-width:1px;"/>
            <path d="M-60.861,-345.866L-121.038,-386.628" style="fill:none;fill-rule:nonzero;stroke:black;stroke-width:1px;"/>
            <path d="M-55.722,-348.909L-62.635,-422.183" style="fill:none;fill-rule:nonzero;stroke:black;stroke-width:1px;"/>
            <path d="M68.052,-165.734L99.277,-232.963" style="fill:none;fill-rule:nonzero;stroke:black;stroke-width:1px;"/>
            <path d="M64.193,-166.326L54.88,-237.326" style="fill:none;fill-rule:nonzero;stroke:black;stroke-width:1px;"/>
            <path d="M145.089,-38.511L278.41,-147.837" style="fill:none;fill-rule:nonzero;stroke:black;stroke-width:1px;"/>
            <path d="M285.111,-159.156L300.5,-241.324" style="fill:none;fill-rule:nonzero;stroke:black;stroke-width:1px;"/>
            <path d="M303.153,-255.07L317.673,-328.124" style="fill:none;fill-rule:nonzero;stroke:black;stroke-width:1px;"/>
            <path d="M281.452,-158.862L251.045,-243.319" style="fill:none;fill-rule:nonzero;stroke:black;stroke-width:1px;"/>
            <path d="M247.648,-256.829L235.684,-337.516" style="fill:none;fill-rule:nonzero;stroke:black;stroke-width:1px;"/>
            <path d="M234.464,-351.438L232.444,-424.537" style="fill:none;fill-rule:nonzero;stroke:black;stroke-width:1px;"/>
            <path d="M289.943,-155.674L410.552,-222.638" style="fill:none;fill-rule:nonzero;stroke:black;stroke-width:1px;"/>
            <path d="M422.142,-230.404L478.251,-275.216" style="fill:none;fill-rule:nonzero;stroke:black;stroke-width:1px;"/>
            <path d="M423.026,-223.097L490.709,-191.786" style="fill:none;fill-rule:nonzero;stroke:black;stroke-width:1px;"/>
            <path d="M415.428,-232.924L402.07,-306.844" style="fill:none;fill-rule:nonzero;stroke:black;stroke-width:1px;"/>
            <path d="M423.235,-228.473L522.199,-265.227" style="fill:none;fill-rule:nonzero;stroke:black;stroke-width:1px;"/>
            <path d="M534.981,-270.874L617.736,-313.588" style="fill:none;fill-rule:nonzero;stroke:black;stroke-width:1px;"/>
            <path d="M630.278,-313.793L694.559,-283.24" style="fill:none;fill-rule:nonzero;stroke:black;stroke-width:1px;"/>
            <path d="M629.586,-320.957L698.311,-371.724" style="fill:none;fill-rule:nonzero;stroke:black;stroke-width:1px;"/>
            <path d="M709.799,-379.715L778.411,-424.608" style="fill:none;fill-rule:nonzero;stroke:black;stroke-width:1px;"/>
            <path d="M790.17,-432.207L853.446,-472.591" style="fill:none;fill-rule:nonzero;stroke:black;stroke-width:1px;"/>
            <path d="M787.356,-434.724L818.376,-497.857" style="fill:none;fill-rule:nonzero;stroke:black;stroke-width:1px;"/>
            <path d="M825.231,-498.241L864.847,-436.238" style="fill:none;fill-rule:nonzero;stroke:black;stroke-width:1px;"/>
            <path d="M791.267,-428.598L861.618,-430.182" style="fill:none;fill-rule:nonzero;stroke:black;stroke-width:1px;"/>
            <path d="M419.178,-232.572L446.867,-304.806" style="fill:none;fill-rule:nonzero;stroke:black;stroke-width:1px;"/>
            <path d="M412.977,-220.091L376.63,-161.613" style="fill:none;fill-rule:nonzero;stroke:black;stroke-width:1px;"/>
            <path d="M289.417,-148.068L354,-99.496" style="fill:none;fill-rule:nonzero;stroke:black;stroke-width:1px;"/>
            <path d="M366.213,-93.008L435.167,-69.251" style="fill:none;fill-rule:nonzero;stroke:black;stroke-width:1px;"/>
            <path d="M288.672,-157.324L337.157,-207.798" style="fill:none;fill-rule:nonzero;stroke:black;stroke-width:1px;"/>
            <path d="M290.818,-152.542L365.94,-155.402" style="fill:none;fill-rule:nonzero;stroke:black;stroke-width:1px;"/>
            <path d="M135.242,-39.489L92.208,-92.061" style="fill:none;fill-rule:nonzero;stroke:black;stroke-width:1px;"/>
            <path d="M94.571,-99.148L166.541,-116.834" style="fill:none;fill-rule:nonzero;stroke:black;stroke-width:1px;"/>
            <path d="M173.713,-125.494L177.573,-197.652" style="fill:none;fill-rule:nonzero;stroke:black;stroke-width:1px;"/>
            <path d="M138.765,-41.012L129.318,-113.012" style="fill:none;fill-rule:nonzero;stroke:black;stroke-width:1px;"/>
            <path d="M146.673,-33.883L218.603,-31.943" style="fill:none;fill-rule:nonzero;stroke:black;stroke-width:1px;"/>
            <path d="M142.775,-27.796L225.525,139.765" style="fill:none;fill-rule:nonzero;stroke:black;stroke-width:1px;"/>
            <path d="M235.606,146.56L327.768,153.402" style="fill:none;fill-rule:nonzero;stroke:black;stroke-width:1px;"/>
            <path d="M341.745,154.124L417.824,156.346" style="fill:none;fill-rule:nonzero;stroke:black;stroke-width:1px;"/>
            <path d="M230.184,152.866L245.787,221.144" style="fill:none;fill-rule:nonzero;stroke:black;stroke-width:1px;"/>
            <path d="M222.103,148.586L149.12,177.061" style="fill:none;fill-rule:nonzero;stroke:black;stroke-width:1px;"/>
            <path d="M224.323,151.564L178.03,210.99" style="fill:none;fill-rule:nonzero;stroke:black;stroke-width:1px;"/>
            <path d="M234.442,149.935L301.631,194.898" style="fill:none;fill-rule:nonzero;stroke:black;stroke-width:1px;"/>
            <path d="M225.805,152.449L180.709,254.938" style="fill:none;fill-rule:nonzero;stroke:black;stroke-width:1px;"/>
            <path d="M176.009,268.087L149.954,361.502" style="fill:none;fill-rule:nonzero;stroke:black;stroke-width:1px;"/>
            <path d="M147.107,375.177L135.651,457.346" style="fill:none;fill-rule:nonzero;stroke:black;stroke-width:1px;"/>
            <path d="M133.123,471.103L116.87,542.16" style="fill:none;fill-rule:nonzero;stroke:black;stroke-width:1px;"/>
            <path d="M142.084,371.867L77.682,410.826" style="fill:none;fill-rule:nonzero;stroke:black;stroke-width:1px;"/>
            <path d="M77.182,418.792L129.194,459.936" style="fill:none;fill-rule:nonzero;stroke:black;stroke-width:1px;"/>
            <path d="M235.262,143.816L303.767,120.845" style="fill:none;fill-rule:nonzero;stroke:black;stroke-width:1px;"/>
            <path d="M221.676,145.195L150.254,136.497" style="fill:none;fill-rule:nonzero;stroke:black;stroke-width:1px;"/>
            <path d="M145.77,142.202L171.263,209.961" style="fill:none;fill-rule:nonzero;stroke:black;stroke-width:1px;"/>
            <path d="M231.815,152.272L296.172,277.939" style="fill:none;fill-rule:nonzero;stroke:black;stroke-width:1px;"/>
            <path d="M305.689,281.174L373.024,249.301" style="fill:none;fill-rule:nonzero;stroke:black;stroke-width:1px;"/>
            <path d="M373.511,242.447L313.288,202.65" style="fill:none;fill-rule:nonzero;stroke:black;stroke-width:1px;"/>
            <path d="M298.789,291.146L292.397,368.967" style="fill:none;fill-rule:nonzero;stroke:black;stroke-width:1px;"/>
            <path d="M306.207,285.635L382.153,301.903" style="fill:none;fill-rule:nonzero;stroke:black;stroke-width:1px;"/>
            <path d="M304.607,288.806L372.763,349.065" style="fill:none;fill-rule:nonzero;stroke:black;stroke-width:1px;"/>
            <path d="M382.745,358.854L433.183,413.694" style="fill:none;fill-rule:nonzero;stroke:black;stroke-width:1px;"/>
            <path d="M302,290.654L331.284,362.662" style="fill:none;fill-rule:nonzero;stroke:black;stroke-width:1px;"/>
            <path d="M294.866,289.534L241.056,353.742" style="fill:none;fill-rule:nonzero;stroke:black;stroke-width:1px;"/>
            <path d="M229.597,359.826L155.036,367.525" style="fill:none;fill-rule:nonzero;stroke:black;stroke-width:1px;"/>
            <path d="M292.444,285.237L220.673,296.311" style="fill:none;fill-rule:nonzero;stroke:black;stroke-width:1px;"/>
            <path d="M210.649,291.105L176.833,222.786" style="fill:none;fill-rule:nonzero;stroke:black;stroke-width:1px;"/>
            <path d="M233.727,141.249L296.655,82.137" style="fill:none;fill-rule:nonzero;stroke:black;stroke-width:1px;"/>
            <path d="M308.563,75.706L380.941,58.284" style="fill:none;fill-rule:nonzero;stroke:black;stroke-width:1px;"/>
            <path d="M228.999,139.052L232.811,67.935" style="fill:none;fill-rule:nonzero;stroke:black;stroke-width:1px;"/>
            <path d="M134.666,-29.183L64.792,39.003" style="fill:none;fill-rule:nonzero;stroke:black;stroke-width:1px;"/>
            <path d="M59.002,50.848L50.925,122.894" style="fill:none;fill-rule:nonzero;stroke:black;stroke-width:1px;"/>
            <path d="M52.789,44.188L-23.472,47.424" style="fill:none;fill-rule:nonzero;stroke:black;stroke-width:1px;"/>
            <path d="M-27.558,54.088L-1.79,110.517" style="fill:none;fill-rule:nonzero;stroke:black;stroke-width:1px;"/>
            <path d="M55.397,49.348L5.503,111.428" style="fill:none;fill-rule:nonzero;stroke:black;stroke-width:1px;"/>
            <path d="M132.676,-34.128L61.188,-34.698" style="fill:none;fill-rule:nonzero;stroke:black;stroke-width:1px;"/>
            <path d="M142.268,-40.574L170.747,-112.002" style="fill:none;fill-rule:nonzero;stroke:black;stroke-width:1px;"/>
        </g>
        <g id="nodes">
            <g transform="matrix(1,0,0,1,-24,-26)">
                <circle cx="0" cy="0" r="5" style="fill:rgb(255,38,0);"/>
                <g transform="matrix(1,0,0,1,-5,18.3546)">
                    <text x="0px" y="0px" style="font-family:'Arial-BoldMT', 'Arial', sans-serif;font-weight:700;font-size:16px;fill:rgb(255,38,0);">electron@19.0.4</text>
                </g>
            </g>
            <g transform="matrix(1,0,0,1,-183.556,-13.1841)">
                <circle cx="0" cy="0" r="5"/>
                <g transform="matrix(1,0,0,1,-5,-10)">
                    <text x="0px" y="0px" style="font-family:'ArialMT', 'Arial', sans-serif;font-size:16px;">extract-zip@1.7.0</text>
                </g>
            </g>
            <g transform="matrix(1,0,0,1,-286.416,-47.2184)">
                <circle cx="0" cy="0" r="5"/>
                <g transform="matrix(1,0,0,1,-5,-10)">
                    <text x="0px" y="0px" style="font-family:'ArialMT', 'Arial', sans-serif;font-size:16px;">yauzl@2.10.0</text>
                </g>
            </g>
            <g transform="matrix(1,0,0,1,-373.701,-46.071)">
                <circle cx="0" cy="0" r="5"/>
                <g transform="matrix(1,0,0,1,-5,-10)">
                    <text x="0px" y="0px" style="font-family:'ArialMT', 'Arial', sans-serif;font-size:16px;">buf<tspan x="21.953px 26.398px " y="0px 0px ">fe</tspan>r-crc32@0.2.13</text>
                </g>
            </g>
            <g transform="matrix(1,0,0,1,-360.348,-108.412)">
                <circle cx="0" cy="0" r="5"/>
                <g transform="matrix(1,0,0,1,-5,-10)">
                    <text x="0px" y="0px" style="font-family:'ArialMT', 'Arial', sans-serif;font-size:16px;">fd-slicer@1.1.0</text>
                </g>
            </g>
            <g transform="matrix(1,0,0,1,-430.93,-159.324)">
                <circle cx="0" cy="0" r="5"/>
                <g transform="matrix(1,0,0,1,-5,-10)">
                    <text x="0px" y="0px" style="font-family:'ArialMT', 'Arial', sans-serif;font-size:16px;">pend@1.2.0</text>
                </g>
            </g>
            <g transform="matrix(1,0,0,1,-239.816,-88.5418)">
                <circle cx="0" cy="0" r="5"/>
                <g transform="matrix(1,0,0,1,-5,-10)">
                    <text x="0px" y="0px" style="font-family:'ArialMT', 'Arial', sans-serif;font-size:16px;">mkdirp@0.5.6</text>
                </g>
            </g>
            <g transform="matrix(1,0,0,1,-288.384,-161.772)">
                <circle cx="0" cy="0" r="5"/>
                <g transform="matrix(1,0,0,1,-5,-10)">
                    <text x="0px" y="0px" style="font-family:'ArialMT', 'Arial', sans-serif;font-size:16px;">minimist@1.2.6</text>
                </g>
            </g>
            <g transform="matrix(1,0,0,1,-183.438,-105.658)">
                <circle cx="0" cy="0" r="5"/>
                <g transform="matrix(1,0,0,1,-5,-10)">
                    <text x="0px" y="0px" style="font-family:'ArialMT', 'Arial', sans-serif;font-size:16px;">debug@2.6.9</text>
                </g>
            </g>
            <g transform="matrix(1,0,0,1,-206.919,-189.449)">
                <circle cx="0" cy="0" r="5"/>
                <g transform="matrix(1,0,0,1,-5,-10)">
                    <text x="0px" y="0px" style="font-family:'ArialMT', 'Arial', sans-serif;font-size:16px;">ms@2.0.0</text>
                </g>
            </g>
            <g transform="matrix(1,0,0,1,-288.765,71.4534)">
                <circle cx="0" cy="0" r="5"/>
                <g transform="matrix(1,0,0,1,-5,-10)">
                    <text x="0px" y="0px" style="font-family:'ArialMT', 'Arial', sans-serif;font-size:16px;">concat-stream@1.6.2</text>
                </g>
            </g>
            <g transform="matrix(1,0,0,1,-233.557,137.292)">
                <circle cx="0" cy="0" r="5"/>
                <g transform="matrix(1,0,0,1,-5,-10)">
                    <text x="0px" y="0px" style="font-family:'ArialMT', 'Arial', sans-serif;font-size:16px;">typedarray@0.0.6</text>
                </g>
            </g>
            <g transform="matrix(1,0,0,1,-397.771,136.286)">
                <circle cx="0" cy="0" r="5"/>
                <g transform="matrix(1,0,0,1,-5,-10)">
                    <text x="0px" y="0px" style="font-family:'ArialMT', 'Arial', sans-serif;font-size:16px;">readable-stream@2.3.7</text>
                </g>
            </g>
            <g transform="matrix(1,0,0,1,-460.36,72.261)">
                <circle cx="0" cy="0" r="5"/>
                <g transform="matrix(1,0,0,1,-5,-10)">
                    <text x="0px" y="0px" style="font-family:'ArialMT', 'Arial', sans-serif;font-size:16px;">util-deprecate@1.0.2</text>
                </g>
            </g>
            <g transform="matrix(1,0,0,1,-421.703,224.988)">
                <circle cx="0" cy="0" r="5"/>
                <g transform="matrix(1,0,0,1,-5,-10)">
                    <text x="0px" y="0px" style="font-family:'ArialMT', 'Arial', sans-serif;font-size:16px;">string_decoder@1.1.1</text>
                </g>
            </g>
            <g transform="matrix(1,0,0,1,-484.697,169.6)">
                <circle cx="0" cy="0" r="5"/>
                <g transform="matrix(1,0,0,1,-5,-10)">
                    <text x="0px" y="0px" style="font-family:'ArialMT', 'Arial', sans-serif;font-size:16px;">safe-buf<tspan x="57.523px 61.969px " y="0px 0px ">fe</tspan>r@5.1.2</text>
                </g>
            </g>
            <g transform="matrix(1,0,0,1,-459.912,204.315)">
                <circle cx="0" cy="0" r="5"/>
                <g transform="matrix(1,0,0,1,-5,-10)">
                    <text x="0px" y="0px" style="font-family:'ArialMT', 'Arial', sans-serif;font-size:16px;">process-nextick-args@2.0.1</text>
                </g>
            </g>
            <g transform="matrix(1,0,0,1,-486.986,116.88)">
                <circle cx="0" cy="0" r="5"/>
                <g transform="matrix(1,0,0,1,-5,-10)">
                    <text x="0px" y="0px" style="font-family:'ArialMT', 'Arial', sans-serif;font-size:16px;">isarray@1.0.0</text>
                </g>
            </g>
            <g transform="matrix(1,0,0,1,-373.467,56.1912)">
                <circle cx="0" cy="0" r="5"/>
                <g transform="matrix(1,0,0,1,-5,-10)">
                    <text x="0px" y="0px" style="font-family:'ArialMT', 'Arial', sans-serif;font-size:16px;">inherits@2.0.4</text>
                </g>
            </g>
            <g transform="matrix(1,0,0,1,-361.471,217.072)">
                <circle cx="0" cy="0" r="5"/>
                <g transform="matrix(1,0,0,1,-5,-10)">
                    <text x="0px" y="0px" style="font-family:'ArialMT', 'Arial', sans-serif;font-size:16px;">core-util-is@1.0.3</text>
                </g>
            </g>
            <g transform="matrix(1,0,0,1,-291.499,157.955)">
                <circle cx="0" cy="0" r="5"/>
                <g transform="matrix(1,0,0,1,-5,-10)">
                    <text x="0px" y="0px" style="font-family:'ArialMT', 'Arial', sans-serif;font-size:16px;">buf<tspan x="21.953px 26.398px " y="0px 0px ">fe</tspan>r-from@1.1.2</text>
                </g>
            </g>
            <g transform="matrix(1,0,0,1,-89.1251,-78.9007)">
                <circle cx="0" cy="0" r="5"/>
                <g transform="matrix(1,0,0,1,-5,-10)">
                    <text x="0px" y="0px" style="font-family:'ArialMT', 'Arial', sans-serif;font-size:16px;">@types/node@16.1<tspan x="140.719px 149.617px " y="0px 0px ">1.</tspan>41</text>
                </g>
            </g>
            <g transform="matrix(1,0,0,1,139.676,-34.0719)">
                <circle cx="0" cy="0" r="5"/>
                <g transform="matrix(1,0,0,1,-5,-10)">
                    <text x="0px" y="0px" style="font-family:'ArialMT', 'Arial', sans-serif;font-size:16px;">@electron/get@1.14.1</text>
                </g>
            </g>
            <g transform="matrix(1,0,0,1,65.1031,-159.385)">
                <circle cx="0" cy="0" r="5"/>
                <g transform="matrix(1,0,0,1,-5,-10)">
                    <text x="0px" y="0px" style="font-family:'ArialMT', 'Arial', sans-serif;font-size:16px;">global-tunnel-ng@2.7.1</text>
                </g>
            </g>
            <g transform="matrix(1,0,0,1,-19.2138,-181.486)">
                <circle cx="0" cy="0" r="5"/>
                <g transform="matrix(1,0,0,1,-5,-10)">
                    <text x="0px" y="0px" style="font-family:'ArialMT', 'Arial', sans-serif;font-size:16px;">tunnel@0.0.6</text>
                </g>
            </g>
            <g transform="matrix(1,0,0,1,3.10711,-259.786)">
                <circle cx="0" cy="0" r="5"/>
                <g transform="matrix(1,0,0,1,-5,-10)">
                    <text x="0px" y="0px" style="font-family:'ArialMT', 'Arial', sans-serif;font-size:16px;">npm-conf@1.1.3</text>
                </g>
            </g>
            <g transform="matrix(1,0,0,1,20.0173,-345.711)">
                <circle cx="0" cy="0" r="5"/>
                <g transform="matrix(1,0,0,1,-5,-10)">
                    <text x="0px" y="0px" style="font-family:'ArialMT', 'Arial', sans-serif;font-size:16px;">pify@3.0.0</text>
                </g>
            </g>
            <g transform="matrix(1,0,0,1,-55.065,-341.94)">
                <circle cx="0" cy="0" r="5"/>
                <g transform="matrix(1,0,0,1,-5,-10)">
                    <text x="0px" y="0px" style="font-family:'ArialMT', 'Arial', sans-serif;font-size:16px;">conﬁg-chain@1.1.13</text>
                </g>
            </g>
            <g transform="matrix(1,0,0,1,-126.834,-390.554)">
                <circle cx="0" cy="0" r="5"/>
                <g transform="matrix(1,0,0,1,-5,-10)">
                    <text x="0px" y="0px" style="font-family:'ArialMT', 'Arial', sans-serif;font-size:16px;">ini@1.3.8</text>
                </g>
            </g>
            <g transform="matrix(1,0,0,1,-63.2925,-429.152)">
                <circle cx="0" cy="0" r="5"/>
                <g transform="matrix(1,0,0,1,-5,-10)">
                    <text x="0px" y="0px" style="font-family:'ArialMT', 'Arial', sans-serif;font-size:16px;">proto-list@1.2.4</text>
                </g>
            </g>
            <g transform="matrix(1,0,0,1,102.226,-239.312)">
                <circle cx="0" cy="0" r="5"/>
                <g transform="matrix(1,0,0,1,-5,-10)">
                    <text x="0px" y="0px" style="font-family:'ArialMT', 'Arial', sans-serif;font-size:16px;">lodash@4.17.21</text>
                </g>
            </g>
            <g transform="matrix(1,0,0,1,53.9691,-244.266)">
                <circle cx="0" cy="0" r="5"/>
                <g transform="matrix(1,0,0,1,-5,-10)">
                    <text x="0px" y="0px" style="font-family:'ArialMT', 'Arial', sans-serif;font-size:16px;">encodeurl@1.0.2</text>
                </g>
            </g>
            <g transform="matrix(1,0,0,1,283.823,-152.276)">
                <circle cx="0" cy="0" r="5"/>
                <g transform="matrix(1,0,0,1,-5,-10)">
                    <text x="0px" y="0px" style="font-family:'ArialMT', 'Arial', sans-serif;font-size:16px;">global-agent@3.0.0</text>
                </g>
            </g>
            <g transform="matrix(1,0,0,1,301.788,-248.204)">
                <circle cx="0" cy="0" r="5"/>
                <g transform="matrix(1,0,0,1,-5,-10)">
                    <text x="0px" y="0px" style="font-family:'ArialMT', 'Arial', sans-serif;font-size:16px;">serialize-error@7.0.1</text>
                </g>
            </g>
            <g transform="matrix(1,0,0,1,319.038,-334.989)">
                <circle cx="0" cy="0" r="5"/>
                <g transform="matrix(1,0,0,1,-5,-10)">
                    <text x="0px" y="0px" style="font-family:'ArialMT', 'Arial', sans-serif;font-size:16px;">type-fest@0.13.1</text>
                </g>
            </g>
            <g transform="matrix(1,0,0,1,248.674,-249.905)">
                <circle cx="0" cy="0" r="5"/>
                <g transform="matrix(1,0,0,1,-5,-10)">
                    <text x="0px" y="0px" style="font-family:'ArialMT', 'Arial', sans-serif;font-size:16px;">semver@7.3.7</text>
                </g>
            </g>
            <g transform="matrix(1,0,0,1,234.657,-344.44)">
                <circle cx="0" cy="0" r="5"/>
                <g transform="matrix(1,0,0,1,-5,-10)">
                    <text x="0px" y="0px" style="font-family:'ArialMT', 'Arial', sans-serif;font-size:16px;">lru-cache@6.0.0</text>
                </g>
            </g>
            <g transform="matrix(1,0,0,1,232.251,-431.534)">
                <circle cx="0" cy="0" r="5"/>
                <g transform="matrix(1,0,0,1,-5,-10)">
                    <text x="0px" y="0px" style="font-family:'ArialMT', 'Arial', sans-serif;font-size:16px;">yallist@4.0.0</text>
                </g>
            </g>
            <g transform="matrix(1,0,0,1,416.672,-226.036)">
                <circle cx="0" cy="0" r="5"/>
                <g transform="matrix(1,0,0,1,-5,-10)">
                    <text x="0px" y="0px" style="font-family:'ArialMT', 'Arial', sans-serif;font-size:16px;">roarr@2.15.4</text>
                </g>
            </g>
            <g transform="matrix(1,0,0,1,483.721,-279.584)">
                <circle cx="0" cy="0" r="5"/>
                <g transform="matrix(1,0,0,1,-5,-10)">
                    <text x="0px" y="0px" style="font-family:'ArialMT', 'Arial', sans-serif;font-size:16px;">sprintf-js@1.1.2</text>
                </g>
            </g>
            <g transform="matrix(1,0,0,1,497.062,-188.847)">
                <circle cx="0" cy="0" r="5"/>
                <g transform="matrix(1,0,0,1,-5,-10)">
                    <text x="0px" y="0px" style="font-family:'ArialMT', 'Arial', sans-serif;font-size:16px;">semver-compare@1.0.0</text>
                </g>
            </g>
            <g transform="matrix(1,0,0,1,400.826,-313.732)">
                <circle cx="0" cy="0" r="5"/>
                <g transform="matrix(1,0,0,1,-5,-10)">
                    <text x="0px" y="0px" style="font-family:'ArialMT', 'Arial', sans-serif;font-size:16px;">json-stringify-safe@5.0.1</text>
                </g>
            </g>
            <g transform="matrix(1,0,0,1,528.761,-267.664)">
                <circle cx="0" cy="0" r="5"/>
                <g transform="matrix(1,0,0,1,-5,-10)">
                    <text x="0px" y="0px" style="font-family:'ArialMT', 'Arial', sans-serif;font-size:16px;">globalthis@1.0.3</text>
                </g>
            </g>
            <g transform="matrix(1,0,0,1,623.956,-316.798)">
                <circle cx="0" cy="0" r="5"/>
                <g transform="matrix(1,0,0,1,-5,-10)">
                    <text x="0px" y="0px" style="font-family:'ArialMT', 'Arial', sans-serif;font-size:16px;">deﬁne-properties@1.1.4</text>
                </g>
            </g>
            <g transform="matrix(1,0,0,1,700.881,-280.235)">
                <circle cx="0" cy="0" r="5"/>
                <g transform="matrix(1,0,0,1,-5,-10)">
                    <text x="0px" y="0px" style="font-family:'ArialMT', 'Arial', sans-serif;font-size:16px;">object-keys@1.1.1</text>
                </g>
            </g>
            <g transform="matrix(1,0,0,1,703.941,-375.883)">
                <circle cx="0" cy="0" r="5"/>
                <g transform="matrix(1,0,0,1,-5,-10)">
                    <text x="0px" y="0px" style="font-family:'ArialMT', 'Arial', sans-serif;font-size:16px;">has-property-descriptors@1.0.0</text>
                </g>
            </g>
            <g transform="matrix(1,0,0,1,784.269,-428.441)">
                <circle cx="0" cy="0" r="5"/>
                <g transform="matrix(1,0,0,1,-5,-10)">
                    <text x="0px" y="0px" style="font-family:'ArialMT', 'Arial', sans-serif;font-size:16px;">get-intrinsic@1.1.2</text>
                </g>
            </g>
            <g transform="matrix(1,0,0,1,859.347,-476.357)">
                <circle cx="0" cy="0" r="5"/>
                <g transform="matrix(1,0,0,1,-5,-10)">
                    <text x="0px" y="0px" style="font-family:'ArialMT', 'Arial', sans-serif;font-size:16px;">has-symbols@1.0.3</text>
                </g>
            </g>
            <g transform="matrix(1,0,0,1,821.462,-504.14)">
                <circle cx="0" cy="0" r="5"/>
                <g transform="matrix(1,0,0,1,-5,-10)">
                    <text x="0px" y="0px" style="font-family:'ArialMT', 'Arial', sans-serif;font-size:16px;">has@1.0.3</text>
                </g>
            </g>
            <g transform="matrix(1,0,0,1,868.616,-430.339)">
                <circle cx="0" cy="0" r="5"/>
                <g transform="matrix(1,0,0,1,-5,-10)">
                    <text x="0px" y="0px" style="font-family:'ArialMT', 'Arial', sans-serif;font-size:16px;">function-bind@1.1.1</text>
                </g>
            </g>
            <g transform="matrix(1,0,0,1,449.373,-311.342)">
                <circle cx="0" cy="0" r="5"/>
                <g transform="matrix(1,0,0,1,-5,-10)">
                    <text x="0px" y="0px" style="font-family:'ArialMT', 'Arial', sans-serif;font-size:16px;">detect-node@2.1.0</text>
                </g>
            </g>
            <g transform="matrix(1,0,0,1,372.934,-155.668)">
                <circle cx="0" cy="0" r="5"/>
                <g transform="matrix(1,0,0,1,-5,-10)">
                    <text x="0px" y="0px" style="font-family:'ArialMT', 'Arial', sans-serif;font-size:16px;">boolean@3.2.0</text>
                </g>
            </g>
            <g transform="matrix(1,0,0,1,359.594,-95.2881)">
                <circle cx="0" cy="0" r="5"/>
                <g transform="matrix(1,0,0,1,-5,-10)">
                    <text x="0px" y="0px" style="font-family:'ArialMT', 'Arial', sans-serif;font-size:16px;">matcher@3.0.0</text>
                </g>
            </g>
            <g transform="matrix(1,0,0,1,441.785,-66.9711)">
                <circle cx="0" cy="0" r="5"/>
                <g transform="matrix(1,0,0,1,-5,-10)">
                    <text x="0px" y="0px" style="font-family:'ArialMT', 'Arial', sans-serif;font-size:16px;">escape-string-regexp@4.0.0</text>
                </g>
            </g>
            <g transform="matrix(1,0,0,1,342.006,-212.846)">
                <circle cx="0" cy="0" r="5"/>
                <g transform="matrix(1,0,0,1,-5,-10)">
                    <text x="0px" y="0px" style="font-family:'ArialMT', 'Arial', sans-serif;font-size:16px;">es6-error@4.1.1</text>
                </g>
            </g>
            <g transform="matrix(1,0,0,1,87.7737,-97.4779)">
                <circle cx="0" cy="0" r="5"/>
                <g transform="matrix(1,0,0,1,-5,-10)">
                    <text x="0px" y="0px" style="font-family:'ArialMT', 'Arial', sans-serif;font-size:16px;">sumchecker@3.0.1</text>
                </g>
            </g>
            <g transform="matrix(1,0,0,1,173.339,-118.504)">
                <circle cx="0" cy="0" r="5"/>
                <g transform="matrix(1,0,0,1,-5,-10)">
                    <text x="0px" y="0px" style="font-family:'ArialMT', 'Arial', sans-serif;font-size:16px;">debug@4.3.4</text>
                </g>
            </g>
            <g transform="matrix(1,0,0,1,177.947,-204.642)">
                <circle cx="0" cy="0" r="5"/>
                <g transform="matrix(1,0,0,1,-5,-10)">
                    <text x="0px" y="0px" style="font-family:'ArialMT', 'Arial', sans-serif;font-size:16px;">ms@2.1.2</text>
                </g>
            </g>
            <g transform="matrix(1,0,0,1,128.408,-119.953)">
                <circle cx="0" cy="0" r="5"/>
                <g transform="matrix(1,0,0,1,-5,-10)">
                    <text x="0px" y="0px" style="font-family:'ArialMT', 'Arial', sans-serif;font-size:16px;">semver@6.3.0</text>
                </g>
            </g>
            <g transform="matrix(1,0,0,1,225.601,-31.7542)">
                <circle cx="0" cy="0" r="5"/>
                <g transform="matrix(1,0,0,1,-5,-10)">
                    <text x="0px" y="0px" style="font-family:'ArialMT', 'Arial', sans-serif;font-size:16px;">progress@2.0.3</text>
                </g>
            </g>
            <g transform="matrix(1,0,0,1,228.625,146.042)">
                <circle cx="0" cy="0" r="5"/>
                <g transform="matrix(1,0,0,1,-5,-10)">
                    <text x="0px" y="0px" style="font-family:'ArialMT', 'Arial', sans-serif;font-size:16px;">got@9.6.0</text>
                </g>
            </g>
            <g transform="matrix(1,0,0,1,334.748,153.92)">
                <circle cx="0" cy="0" r="5"/>
                <g transform="matrix(1,0,0,1,-5,-10)">
                    <text x="0px" y="0px" style="font-family:'ArialMT', 'Arial', sans-serif;font-size:16px;">url-parse-lax@3.0.0</text>
                </g>
            </g>
            <g transform="matrix(1,0,0,1,424.821,156.55)">
                <circle cx="0" cy="0" r="5"/>
                <g transform="matrix(1,0,0,1,-5,-10)">
                    <text x="0px" y="0px" style="font-family:'ArialMT', 'Arial', sans-serif;font-size:16px;">prepend-http@2.0.0</text>
                </g>
            </g>
            <g transform="matrix(1,0,0,1,247.347,227.968)">
                <circle cx="0" cy="0" r="5"/>
                <g transform="matrix(1,0,0,1,-5,-10)">
                    <text x="0px" y="0px" style="font-family:'ArialMT', 'Arial', sans-serif;font-size:16px;">to-readable-stream@1.0.0</text>
                </g>
            </g>
            <g transform="matrix(1,0,0,1,142.598,179.605)">
                <circle cx="0" cy="0" r="5"/>
                <g transform="matrix(1,0,0,1,-5,-10)">
                    <text x="0px" y="0px" style="font-family:'ArialMT', 'Arial', sans-serif;font-size:16px;">p-cancelable@1.1.0</text>
                </g>
            </g>
            <g transform="matrix(1,0,0,1,173.728,216.512)">
                <circle cx="0" cy="0" r="5"/>
                <g transform="matrix(1,0,0,1,-5,-10)">
                    <text x="0px" y="0px" style="font-family:'ArialMT', 'Arial', sans-serif;font-size:16px;">mimic-response@1.0.1</text>
                </g>
            </g>
            <g transform="matrix(1,0,0,1,307.448,198.791)">
                <circle cx="0" cy="0" r="5"/>
                <g transform="matrix(1,0,0,1,-5,-10)">
                    <text x="0px" y="0px" style="font-family:'ArialMT', 'Arial', sans-serif;font-size:16px;">lowercase-keys@1.0.1</text>
                </g>
            </g>
            <g transform="matrix(1,0,0,1,177.889,261.345)">
                <circle cx="0" cy="0" r="5"/>
                <g transform="matrix(1,0,0,1,-5,-10)">
                    <text x="0px" y="0px" style="font-family:'ArialMT', 'Arial', sans-serif;font-size:16px;">get-stream@4.1.0</text>
                </g>
            </g>
            <g transform="matrix(1,0,0,1,148.073,368.244)">
                <circle cx="0" cy="0" r="5"/>
                <g transform="matrix(1,0,0,1,-5,-10)">
                    <text x="0px" y="0px" style="font-family:'ArialMT', 'Arial', sans-serif;font-size:16px;">pump@3.0.0</text>
                </g>
            </g>
            <g transform="matrix(1,0,0,1,134.684,464.279)">
                <circle cx="0" cy="0" r="5"/>
                <g transform="matrix(1,0,0,1,-5,-10)">
                    <text x="0px" y="0px" style="font-family:'ArialMT', 'Arial', sans-serif;font-size:16px;">once@1.4.0</text>
                </g>
            </g>
            <g transform="matrix(1,0,0,1,115.31,548.984)">
                <circle cx="0" cy="0" r="5"/>
                <g transform="matrix(1,0,0,1,-5,-10)">
                    <text x="0px" y="0px" style="font-family:'ArialMT', 'Arial', sans-serif;font-size:16px;">wrappy@1.0.2</text>
                </g>
            </g>
            <g transform="matrix(1,0,0,1,71.6924,414.449)">
                <circle cx="0" cy="0" r="5"/>
                <g transform="matrix(1,0,0,1,-5,-10)">
                    <text x="0px" y="0px" style="font-family:'ArialMT', 'Arial', sans-serif;font-size:16px;">end-of-stream@1.4.4</text>
                </g>
            </g>
            <g transform="matrix(1,0,0,1,310.404,118.62)">
                <circle cx="0" cy="0" r="5"/>
                <g transform="matrix(1,0,0,1,-5,-10)">
                    <text x="0px" y="0px" style="font-family:'ArialMT', 'Arial', sans-serif;font-size:16px;">duplexer3@0.1.4</text>
                </g>
            </g>
            <g transform="matrix(1,0,0,1,143.305,135.65)">
                <circle cx="0" cy="0" r="5"/>
                <g transform="matrix(1,0,0,1,-5,-10)">
                    <text x="0px" y="0px" style="font-family:'ArialMT', 'Arial', sans-serif;font-size:16px;">decompress-response@3.3.0</text>
                </g>
            </g>
            <g transform="matrix(1,0,0,1,299.363,284.169)">
                <circle cx="0" cy="0" r="5"/>
                <g transform="matrix(1,0,0,1,-5,-10)">
                    <text x="0px" y="0px" style="font-family:'ArialMT', 'Arial', sans-serif;font-size:16px;">cacheable-request@6.1.0</text>
                </g>
            </g>
            <g transform="matrix(1,0,0,1,379.351,246.306)">
                <circle cx="0" cy="0" r="5"/>
                <g transform="matrix(1,0,0,1,-5,-10)">
                    <text x="0px" y="0px" style="font-family:'ArialMT', 'Arial', sans-serif;font-size:16px;">responselike@1.0.2</text>
                </g>
            </g>
            <g transform="matrix(1,0,0,1,291.824,375.943)">
                <circle cx="0" cy="0" r="5"/>
                <g transform="matrix(1,0,0,1,-5,-10)">
                    <text x="0px" y="0px" style="font-family:'ArialMT', 'Arial', sans-serif;font-size:16px;">normalize-url@4.5.1</text>
                </g>
            </g>
            <g transform="matrix(1,0,0,1,388.998,303.369)">
                <circle cx="0" cy="0" r="5"/>
                <g transform="matrix(1,0,0,1,-5,-10)">
                    <text x="0px" y="0px" style="font-family:'ArialMT', 'Arial', sans-serif;font-size:16px;">lowercase-keys@2.0.0</text>
                </g>
            </g>
            <g transform="matrix(1,0,0,1,378.007,353.702)">
                <circle cx="0" cy="0" r="5"/>
                <g transform="matrix(1,0,0,1,-5,-10)">
                    <text x="0px" y="0px" style="font-family:'ArialMT', 'Arial', sans-serif;font-size:16px;">keyv@3.1.0</text>
                </g>
            </g>
            <g transform="matrix(1,0,0,1,437.921,418.846)">
                <circle cx="0" cy="0" r="5"/>
                <g transform="matrix(1,0,0,1,-5,-10)">
                    <text x="0px" y="0px" style="font-family:'ArialMT', 'Arial', sans-serif;font-size:16px;">json-buf<tspan x="56.633px 61.078px " y="0px 0px ">fe</tspan>r@3.0.0</text>
                </g>
            </g>
            <g transform="matrix(1,0,0,1,333.921,369.146)">
                <circle cx="0" cy="0" r="5"/>
                <g transform="matrix(1,0,0,1,-5,-10)">
                    <text x="0px" y="0px" style="font-family:'ArialMT', 'Arial', sans-serif;font-size:16px;">http-cache-semantics@4.1.0</text>
                </g>
            </g>
            <g transform="matrix(1,0,0,1,236.56,359.107)">
                <circle cx="0" cy="0" r="5"/>
                <g transform="matrix(1,0,0,1,-5,-10)">
                    <text x="0px" y="0px" style="font-family:'ArialMT', 'Arial', sans-serif;font-size:16px;">get-stream@5.2.0</text>
                </g>
            </g>
            <g transform="matrix(1,0,0,1,213.755,297.378)">
                <circle cx="0" cy="0" r="5"/>
                <g transform="matrix(1,0,0,1,-5,-10)">
                    <text x="0px" y="0px" style="font-family:'ArialMT', 'Arial', sans-serif;font-size:16px;">clone-response@1.0.2</text>
                </g>
            </g>
            <g transform="matrix(1,0,0,1,301.757,77.344)">
                <circle cx="0" cy="0" r="5"/>
                <g transform="matrix(1,0,0,1,-5,-10)">
                    <text x="0px" y="0px" style="font-family:'ArialMT', 'Arial', sans-serif;font-size:16px;">@szmarczak/http-timer@1.1.2</text>
                </g>
            </g>
            <g transform="matrix(1,0,0,1,387.747,56.6461)">
                <circle cx="0" cy="0" r="5"/>
                <g transform="matrix(1,0,0,1,-5,-10)">
                    <text x="0px" y="0px" style="font-family:'ArialMT', 'Arial', sans-serif;font-size:16px;">defer-to-connect@1.1.3</text>
                </g>
            </g>
            <g transform="matrix(1,0,0,1,233.186,60.9453)">
                <circle cx="0" cy="0" r="5"/>
                <g transform="matrix(1,0,0,1,-5,-10)">
                    <text x="0px" y="0px" style="font-family:'ArialMT', 'Arial', sans-serif;font-size:16px;">@sindresorhus/is@0.14.0</text>
                </g>
            </g>
            <g transform="matrix(1,0,0,1,59.7822,43.8917)">
                <circle cx="0" cy="0" r="5"/>
                <g transform="matrix(1,0,0,1,-5,-10)">
                    <text x="0px" y="0px" style="font-family:'ArialMT', 'Arial', sans-serif;font-size:16px;">fs-extra@8.1.0</text>
                </g>
            </g>
            <g transform="matrix(1,0,0,1,50.1454,129.851)">
                <circle cx="0" cy="0" r="5"/>
                <g transform="matrix(1,0,0,1,-5,-10)">
                    <text x="0px" y="0px" style="font-family:'ArialMT', 'Arial', sans-serif;font-size:16px;">universalify@0.1.2</text>
                </g>
            </g>
            <g transform="matrix(1,0,0,1,-30.4661,47.7209)">
                <circle cx="0" cy="0" r="5"/>
                <g transform="matrix(1,0,0,1,-5,-10)">
                    <text x="0px" y="0px" style="font-family:'ArialMT', 'Arial', sans-serif;font-size:16px;">jsonﬁle@4.0.0</text>
                </g>
            </g>
            <g transform="matrix(1,0,0,1,1.11746,116.884)">
                <circle cx="0" cy="0" r="5"/>
                <g transform="matrix(1,0,0,1,-5,-10)">
                    <text x="0px" y="0px" style="font-family:'ArialMT', 'Arial', sans-serif;font-size:16px;">graceful-fs@4.2.10</text>
                </g>
            </g>
            <g transform="matrix(1,0,0,1,54.1882,-34.7539)">
                <circle cx="0" cy="0" r="5"/>
                <g transform="matrix(1,0,0,1,-5,-10)">
                    <text x="0px" y="0px" style="font-family:'ArialMT', 'Arial', sans-serif;font-size:16px;">env-paths@2.2.1</text>
                </g>
            </g>
        </g>
    </g>
</svg>
